<svg xmlns="http://www.w3.org/2000/svg" viewBox="0 0 1536 718" preserveAspectRatio="xMidYMid" width="1536" height="718" xmlns:xlink="http://www.w3.org/1999/xlink" style="shape-rendering:auto;display:block;background-position-x:0%;background-position-y:0%;background-size:auto;background-origin:padding-box;background-clip:border-box;background:scroll rgb(255, 255, 255) none  repeat;width:1536px;height:718px;;animation:none"><g><linearGradient y2="1" y1="0" x2="0" x1="0" id="lg-rzfb6sjvxvb-0"><stop offset="0" stop-color="#066057"></stop>

  
<stop offset="1" stop-color="#328068"></stop></linearGradient>
<linearGradient y2="1" y1="0" x2="0" x1="0" id="lg-rzfb6sjvxvb-1"><stop offset="0" stop-color="#328068"></stop>

  
<stop offset="1" stop-color="#4bc19f"></stop></linearGradient>
<linearGradient y2="1" y1="0" x2="0" x1="0" id="lg-rzfb6sjvxvb-2"><stop offset="0" stop-color="#4bc19f"></stop>

  
<stop offset="1" stop-color="#c9d1a5"></stop></linearGradient>
<linearGradient y2="1" y1="0" x2="0" x1="0" id="lg-rzfb6sjvxvb-3"><stop offset="0" stop-color="#c9d1a5"></stop>

  
<stop offset="1" stop-color="#e1824c"></stop></linearGradient>
<linearGradient y2="1" y1="0" x2="0" x1="0" id="lg-rzfb6sjvxvb-4"><stop offset="0" stop-color="#e1824c"></stop>

  
<stop offset="1" stop-color="#d15658"></stop></linearGradient>
<linearGradient y2="1" y1="0" x2="0" x1="0" id="lg-rzfb6sjvxvb-5"><stop offset="0" stop-color="#d15658"></stop>

  
<stop offset="1" stop-color="#f3f8cf"></stop></linearGradient>
<linearGradient y2="1" y1="0" x2="0" x1="0" id="lg-rzfb6sjvxvb-6"><stop offset="0" stop-color="#f3f8cf"></stop>

  
<stop offset="1" stop-color="#066057"></stop></linearGradient>
<path fill-opacity="0.88" fill="url(#lg-rzfb6sjvxvb-0)" d="M 0 0 L 0 793.39 Q 153.6 732.28 307.2 698 T 614.4 674.2 T 921.6 588.95 T 1228.8 584.11 T 1536 510.74 L 1536 0 Z" style="fill:url('#lg-rzfb6sjvxvb-0');;animation:none"></path>
<path fill-opacity="0.88" fill="url(#lg-rzfb6sjvxvb-1)" d="M 0 0 L 0 633.623 Q 153.6 601.997 307.2 576.243 T 614.4 527.001 T 921.6 488.765 T 1228.8 496.107 T 1536 439.524 L 1536 0 Z" style="fill:url('#lg-rzfb6sjvxvb-1');;animation:none"></path>
<path fill-opacity="0.88" fill="url(#lg-rzfb6sjvxvb-2)" d="M 0 0 L 0 498.65 Q 153.6 485.28 307.2 444.02 T 614.4 408.61 T 921.6 468.82 T 1228.8 410.04 T 1536 385.94 L 1536 0 Z" style="fill:url('#lg-rzfb6sjvxvb-2');;animation:none"></path>
<path fill-opacity="0.88" fill="url(#lg-rzfb6sjvxvb-3)" d="M 0 0 L 0 366.74 Q 153.6 438.26 307.2 410.355 T 614.4 343.415 T 921.6 298.45 T 1228.8 313.04 T 1536 303.035 L 1536 0 Z" style="fill:url('#lg-rzfb6sjvxvb-3');;animation:none"></path>
<path fill-opacity="0.88" fill="url(#lg-rzfb6sjvxvb-4)" d="M 0 0 L 0 266.69 Q 153.6 249.38 307.2 217.79 T 614.4 304.36 T 921.6 213.53 T 1228.8 158.06 T 1536 141.62 L 1536 0 Z" style="fill:url('#lg-rzfb6sjvxvb-4');;animation:none"></path>
<path fill-opacity="0.88" fill="url(#lg-rzfb6sjvxvb-5)" d="M 0 0 L 0 222.84 Q 153.6 156.657 307.2 127.502 T 614.4 209.249 T 921.6 127.943 T 1228.8 101.789 T 1536 128.575 L 1536 0 Z" style="fill:url('#lg-rzfb6sjvxvb-5');;animation:none"></path>
<g></g></g><!-- [ldio] generated by https://loading.io --></svg>